<mxfile host="app.diagrams.net" modified="2024-02-28T21:47:45.709Z" agent="Mozilla/5.0 (Windows NT 10.0; Win64; x64) AppleWebKit/537.36 (KHTML, like Gecko) Chrome/122.0.0.0 Safari/537.36" etag="OWZVBgQSp62ukJq5DGk4" version="23.1.7" type="github">
  <diagram name="Page-1" id="cSXyqhI_4UPYeZUom4V2">
    <mxGraphModel dx="1434" dy="756" grid="1" gridSize="10" guides="1" tooltips="1" connect="1" arrows="1" fold="1" page="1" pageScale="1" pageWidth="850" pageHeight="1100" math="0" shadow="0">
      <root>
        <mxCell id="0" />
        <mxCell id="1" parent="0" />
        <mxCell id="cxhTVrFrLGMJV0syOJE--8" value="View All Items" style="strokeWidth=1;shadow=0;dashed=0;align=center;html=1;shape=mxgraph.mockup.buttons.button;strokeColor=#666666;fontColor=#333333;mainText=;buttonStyle=round;fontSize=17;fontStyle=1;fillColor=#CFCFCF;whiteSpace=wrap;" vertex="1" parent="1">
          <mxGeometry x="320" y="80" width="200" height="60" as="geometry" />
        </mxCell>
        <mxCell id="cxhTVrFrLGMJV0syOJE--9" value="Create New Item" style="strokeWidth=1;shadow=0;dashed=0;align=center;html=1;shape=mxgraph.mockup.buttons.button;strokeColor=#666666;fontColor=#333333;mainText=;buttonStyle=round;fontSize=17;fontStyle=1;fillColor=#CFCFCF;whiteSpace=wrap;" vertex="1" parent="1">
          <mxGeometry x="90" y="240" width="150" height="50" as="geometry" />
        </mxCell>
        <mxCell id="cxhTVrFrLGMJV0syOJE--10" value="Remove Item" style="strokeWidth=1;shadow=0;dashed=0;align=center;html=1;shape=mxgraph.mockup.buttons.button;strokeColor=#666666;fontColor=#333333;mainText=;buttonStyle=round;fontSize=17;fontStyle=1;fillColor=#CFCFCF;whiteSpace=wrap;" vertex="1" parent="1">
          <mxGeometry x="345" y="240" width="150" height="50" as="geometry" />
        </mxCell>
        <mxCell id="cxhTVrFrLGMJV0syOJE--11" value="Edit Item" style="strokeWidth=1;shadow=0;dashed=0;align=center;html=1;shape=mxgraph.mockup.buttons.button;strokeColor=#666666;fontColor=#333333;mainText=;buttonStyle=round;fontSize=17;fontStyle=1;fillColor=#CFCFCF;whiteSpace=wrap;" vertex="1" parent="1">
          <mxGeometry x="600" y="240" width="150" height="50" as="geometry" />
        </mxCell>
      </root>
    </mxGraphModel>
  </diagram>
</mxfile>
